<svg height="480pt" viewBox="-24 0 480 480" width="480pt" xmlns="http://www.w3.org/2000/svg"><path d="m328 464h-288c-13.253906 0-24-10.746094-24-24v-400c0-13.253906 10.746094-24 24-24h224v72c0 3.234375 1.949219 6.152344 4.9375 7.390625s6.429688.550781 8.71875-1.734375l18.34375-18.34375 18.34375 18.34375c2.289062 2.285156 5.730469 2.972656 8.71875 1.734375s4.9375-4.15625 4.9375-7.390625v-72c13.253906 0 24 10.746094 24 24v184h16v-184c-.027344-22.082031-17.917969-39.9726562-40-40h-288c-22.082031.0273438-39.9726562 17.917969-40 40v400c.0273438 22.082031 17.917969 39.972656 40 40h288c9.746094 0 19.15625-3.554688 26.464844-10l-10.601563-12c-4.375 3.871094-10.019531 6.003906-15.863281 6zm-16-395.3125-10.34375-10.34375c-3.125-3.121094-8.1875-3.121094-11.3125 0l-10.34375 10.34375v-52.6875h32zm0 0"/><path d="m48 48h32v16h-32zm0 0"/><path d="m96 48h80v16h-80zm0 0"/><path d="m48 80h128v16h-128zm0 0"/><path d="m48 144h208v16h-208zm0 0"/><path d="m272 144h48v16h-48zm0 0"/><path d="m48 192h272v16h-272zm0 0"/><path d="m48 240h128v16h-128zm0 0"/><path d="m48 288h112v16h-112zm0 0"/><path d="m48 368h80v16h-80zm0 0"/><path d="m48 400h80v16h-80zm0 0"/><path d="m192 240h48v16h-48zm0 0"/><path d="m416 401.472656v-17.472656c-.019531-7.550781-3.574219-14.652344-9.601562-19.199219l-19.199219-14.402343c-2.011719-1.507813-3.199219-3.878907-3.199219-6.398438s1.1875-4.890625 3.199219-6.398438l19.199219-14.402343c6.03125-4.542969 9.582031-11.648438 9.601562-19.199219v-17.472656c11.011719-3.878906 17.621094-15.132813 15.644531-26.640625-1.980469-11.507813-11.96875-19.910157-23.644531-19.886719h-96c-11.675781-.023438-21.664062 8.378906-23.644531 19.886719-1.976563 11.507812 4.632812 22.761719 15.644531 26.640625v17.472656c.019531 7.550781 3.574219 14.652344 9.601562 19.199219l19.199219 14.402343c2.011719 1.507813 3.199219 3.878907 3.199219 6.398438s-1.1875 4.890625-3.199219 6.398438l-19.199219 14.402343c-6.03125 4.542969-9.582031 11.648438-9.601562 19.199219v17.472656c-11.011719 3.878906-17.621094 15.132813-15.644531 26.640625 1.980469 11.507813 11.96875 19.910157 23.644531 19.886719h96c11.675781.023438 21.664062-8.378906 23.644531-19.886719 1.976563-11.507812-4.632812-22.761719-15.644531-26.640625zm-104-145.472656h96c4.417969 0 8 3.582031 8 8s-3.582031 8-8 8h-96c-4.417969 0-8-3.582031-8-8s3.582031-8 8-8zm11.199219 121.601562 19.199219-14.402343c6.042968-4.53125 9.601562-11.644531 9.601562-19.199219s-3.558594-14.667969-9.601562-19.199219l-19.199219-14.402343c-2.007813-1.515626-3.191407-3.882813-3.199219-6.398438v-16h80v16c-.007812 2.515625-1.191406 4.882812-3.199219 6.398438l-19.199219 14.402343c-6.042968 4.53125-9.601562 11.644531-9.601562 19.199219s3.558594 14.667969 9.601562 19.199219l19.199219 14.402343c2.007813 1.515626 3.191407 3.882813 3.199219 6.398438v16h-80v-16c.007812-2.515625 1.191406-4.882812 3.199219-6.398438zm84.800781 54.398438h-96c-4.417969 0-8-3.582031-8-8s3.582031-8 8-8h96c4.417969 0 8 3.582031 8 8s-3.582031 8-8 8zm0 0"/></svg>