<?xml version="1.0"?>
<svg xmlns="http://www.w3.org/2000/svg" width="512" height="512" viewBox="0 0 512 512"><g><path d="M256,264a8,8,0,0,0-8,8V432a8,8,0,0,0,16,0V272A8,8,0,0,0,256,264Z"/><path d="M216,264a8,8,0,0,0-8,8V432a8,8,0,0,0,16,0V272A8,8,0,0,0,216,264Z"/><path d="M176,264a8,8,0,0,0-8,8V432a8,8,0,0,0,16,0V272A8,8,0,0,0,176,264Z"/><path d="M136,264a8,8,0,0,0-8,8V432a8,8,0,0,0,16,0V272A8,8,0,0,0,136,264Z"/><path d="M96,264a8,8,0,0,0-8,8V432a8,8,0,0,0,16,0V272A8,8,0,0,0,96,264Z"/><path d="M56,264a8,8,0,0,0-8,8V432a8,8,0,0,0,16,0V272A8,8,0,0,0,56,264Z"/><path d="M456,264a8,8,0,0,0-8,8V400a8,8,0,0,0,16,0V272A8,8,0,0,0,456,264Z"/><path d="M416,264a8,8,0,0,0-8,8V432a8,8,0,0,0,16,0V272A8,8,0,0,0,416,264Z"/><path d="M376,264a8,8,0,0,0-8,8V432a8,8,0,0,0,16,0V272A8,8,0,0,0,376,264Z"/><path d="M336,264a8,8,0,0,0-8,8V432a8,8,0,0,0,16,0V272A8,8,0,0,0,336,264Z"/><path d="M296,264a8,8,0,0,0-8,8V432a8,8,0,0,0,16,0V272A8,8,0,0,0,296,264Z"/><path d="M456,416a8,8,0,0,0-8,8v8a8,8,0,0,0,16,0v-8A8,8,0,0,0,456,416Z"/><path d="M496,208H457.57L286.4,137.97A31.983,31.983,0,0,0,264,97.01V80h8a8,8,0,0,0,8-8V56h72a8,8,0,0,0,8-8V16a8,8,0,0,0-8-8H160a8,8,0,0,0-8,8V48a8,8,0,0,0,8,8h72V72a8,8,0,0,0,8,8h8v24a8,8,0,0,0,8,8,16,16,0,1,1-16,16,8,8,0,0,0-16,0,31.934,31.934,0,0,0,1.6,9.97L54.43,208H16a8,8,0,0,0-8,8V496a8,8,0,0,0,8,8H496a8,8,0,0,0,8-8V216A8,8,0,0,0,496,208ZM168,40V24H344V40Zm80,24V56h16v8ZM64,221.37l170.46-69.73a31.929,31.929,0,0,0,43.08,0L448,221.37V232H64ZM24,224H48v8H24ZM488,488H24V472H488Zm0-32H24V248H488Zm0-224H464v-8h24Z"/></g></svg>
